<?xml version="1.0" encoding="utf-8"?>
<!-- Generator: Adobe Illustrator 21.0.2, SVG Export Plug-In . SVG Version: 6.00 Build 0)  -->
<svg version="1.1" id="Layer_1" xmlns="http://www.w3.org/2000/svg" xmlns:xlink="http://www.w3.org/1999/xlink" x="0px" y="0px"
	 viewBox="0 0 236 236" style="enable-background:new 0 0 236 236;" xml:space="preserve">
<style type="text/css">
	.st0{fill:#26A9DF;}
	.st1{fill:#248AAE;}
	.st2{fill:none;stroke:#000000;stroke-width:2;stroke-miterlimit:10;}
	.st3{fill:#E9FFFF;}
	.st4{fill:none;stroke:#808080;stroke-miterlimit:10;}
	.st5{fill:#323338;}
</style>
<g>
	<circle class="st0" cx="118" cy="118" r="118"/>
	<path class="st1" d="M18.3,184c0,0,94.3,116.6,199.5,0c0,0-22.5,13.3-43,9.1c-20.5-4.2-56,16.9-56,16.9s-35.5-21.1-51.9-18.3
		S32.6,193.2,18.3,184z"/>
	<path class="st2" d="M95.5,174.2c0,0,2.8,7,9.8,9.8"/>
	<path class="st2" d="M136.3,174.2c0,0-2.8,7-9.8,9.8"/>
	<ellipse class="st3" cx="52" cy="124.3" rx="21.1" ry="40"/>
	<ellipse class="st3" cx="181.2" cy="122.9" rx="21.1" ry="40"/>
	<path class="st4" d="M63.2,77.3c0,0,16.9,8.4,21.1,22.5"/>
	<path class="st4" d="M168.6,77.3c0,0-16.9,8.4-21.1,22.5"/>
	<ellipse class="st5" cx="57.6" cy="122.2" rx="15.5" ry="36.5"/>
	<circle class="st3" cx="58.3" cy="104.7" r="6.3"/>
	<ellipse class="st5" cx="175.6" cy="120.8" rx="15.5" ry="36.5"/>
	<circle class="st3" cx="176.3" cy="103.2" r="6.3"/>
</g>
</svg>
