<?xml version="1.0" encoding="utf-8"?>
<!-- Generator: Adobe Illustrator 21.0.2, SVG Export Plug-In . SVG Version: 6.00 Build 0)  -->
<svg version="1.1" id="Layer_1" xmlns="http://www.w3.org/2000/svg" xmlns:xlink="http://www.w3.org/1999/xlink" x="0px" y="0px"
	 viewBox="0 0 260 221" style="enable-background:new 0 0 260 221;" xml:space="preserve">
<style type="text/css">
	.st0{fill:#48C1C4;}
	.st1{fill:#019899;}
	.st2{fill:#FEFFFF;}
	.st3{fill:#ED3A38;}
	.st4{fill:none;stroke:#4D4D4D;stroke-width:2;stroke-miterlimit:10;}
	.st5{fill:#016668;}
</style>
<g>
	<path class="st0" d="M4.3,174.5c0,0,122,97,247,0c0,0,31.5-93.5-25.5-174.5c0,0-19,1-43,19c0,0-65-27-104,1c0,0-31-22-46-18
		C32.8,2-14.2,19,4.3,174.5z"/>
	<path class="st1" d="M5.3,174.5c0,0,26.7,52,119.5,46s124.5-39,126.4-46c2-7-48.9,13.5-69.6,9.5s-55.3,5-53.3,13
		c0,0-12.8-12-27.7-14S65.1,190,5.3,174.5z"/>
	<g>
		<path class="st2" d="M27.2,102.3c-8.1,3.2-15.9,13.1-6.6,41.5c1.9,5.9,5.9,11,11.3,14.1c12.6,7.3,24.5,5.7,32.2,3.2
			c6.1-2,10.2-7.7,10.1-14.1c-0.1-11-4.4-28.5-30.6-43.4C38.6,100.7,32.5,100.1,27.2,102.3z"/>
		<path class="st3" d="M36.1,100.5c0,0-19.9,29.1-3.7,57.8c26.3,16.4,49.3-2.8,41.3-19.9C68.8,120.4,57.7,108.1,36.1,100.5z"/>
		<ellipse class="st2" cx="57.3" cy="128" rx="4" ry="10.5"/>
	</g>
	<g>
		<path class="st2" d="M222.4,102.3c8.1,3.2,15.9,13.1,6.6,41.5c-1.9,5.9-5.9,11-11.3,14.1c-12.6,7.3-24.5,5.7-32.2,3.2
			c-6.1-2-10.2-7.7-10.1-14.1c0.1-11,4.4-28.5,30.6-43.4C211,100.7,217.1,100.1,222.4,102.3z"/>
		<path class="st3" d="M213.5,100.5c0,0,19.9,29.1,3.7,57.8c-26.3,16.4-49.3-2.8-41.3-19.9C180.8,120.4,192,108.1,213.5,100.5z"/>
		<ellipse class="st2" cx="192.3" cy="128" rx="4" ry="10.5"/>
	</g>
	<path class="st4" d="M104.3,168.5c0,0,3,11,9,11"/>
	<path class="st4" d="M151.3,168.5c0,0-3,11-9,11"/>
	<polyline class="st2" points="202.3,182.7 206.3,189.5 212.2,181.1 202.3,182.7 	"/>
	<polyline class="st2" points="52.2,182.7 48.3,189.5 42.3,181.1 52.2,182.7 	"/>
	<path class="st5" d="M116.3,56.5c0,0,27-18,53-14C178.8,52,143.8,83,136.8,85s-16,2-18-7S116.3,56.5,116.3,56.5z"/>
	<polygon class="st5" points="98.3,72.5 82.3,90.5 92.3,102.5 107.3,93.5 	"/>
	<path class="st5" d="M123.3,119.5c0,0,15-30,34-25c6,8-8,27-8,27S128.3,128.5,123.3,119.5z"/>
</g>
</svg>
