<?xml version="1.0" encoding="utf-8"?>
<!-- Generator: Adobe Illustrator 21.0.2, SVG Export Plug-In . SVG Version: 6.00 Build 0)  -->
<svg version="1.1" id="Layer_1" xmlns="http://www.w3.org/2000/svg" xmlns:xlink="http://www.w3.org/1999/xlink" x="0px" y="0px"
	 viewBox="0 0 361 243.5" style="enable-background:new 0 0 361 243.5;" xml:space="preserve">
<style type="text/css">
	.st0{fill:#8397CC;}
	.st1{fill:#E4E3E1;}
	.st2{fill:#000404;}
	.st3{fill:#F4F0ED;}
	.st4{fill:#DDDCD8;}
</style>
<g>
	<circle class="st0" cx="180.5" cy="144.7" r="92.8"/>
	<ellipse class="st1" cx="180.5" cy="209.4" rx="56.2" ry="34.1"/>
	<circle class="st1" cx="180.5" cy="93.7" r="10.2"/>
	<ellipse class="st2" cx="127.7" cy="137.9" rx="16.2" ry="33.2"/>
	<ellipse class="st2" cx="234.1" cy="137.1" rx="16.2" ry="33.2"/>
	<ellipse class="st3" cx="128.6" cy="125.2" rx="6" ry="14.5"/>
	<ellipse class="st3" cx="232.4" cy="125.2" rx="6" ry="14.5"/>
	<g>
		<path class="st3" d="M0,0c0,0,64.7,17,103.9,139.6l-10.2,35.8l-42.6,34.1l0.9-53.6c0,0-34.1-46-40.9-46c0,0,23.8-8.5,25.5-5.1
			C38.3,108.1,34.9,67.3,0,0z"/>
		<path class="st4" d="M11.9,109c0,0,40.9,35.8,39.2,46c-1.7,10.2,0,56.2,0,56.2l21.3-21.3c0,0,35.8-44.3,0-59.6S11.9,109,11.9,109z
			"/>
	</g>
	<g>
		<path class="st3" d="M361,0c0,0-64.7,17-103.9,139.6l10.2,35.8l42.6,34.1l-0.9-53.6c0,0,34.1-46,40.9-46c0,0-23.8-8.5-25.5-5.1
			C322.7,108.1,326.1,67.3,361,0z"/>
		<path class="st4" d="M349.1,109c0,0-40.9,35.8-39.2,46c1.7,10.2,0,56.2,0,56.2l-21.3-21.3c0,0-35.8-44.3,0-59.6
			S349.1,109,349.1,109z"/>
	</g>
</g>
</svg>
